<?xml version="1.0" encoding="UTF-8"?>
<svg width="249px" height="62px" viewBox="0 0 249 62" version="1.1" xmlns="http://www.w3.org/2000/svg" xmlns:xlink="http://www.w3.org/1999/xlink">
    <title>BadNet_Long</title>
    <g id="Page-1" stroke="none" stroke-width="1" fill="none" fill-rule="evenodd">
        <g id="BadNet_Long" fill-rule="nonzero">
            <g id="Group" transform="translate(74.000000, 7.000000)" fill="#060B3C">
                <path d="M0.253099174,0.328235294 L14.3904959,0.328235294 C19.5971074,0.255294118 25.3099174,1.60470588 25.3099174,7.95058824 C25.3099174,10.6858824 23.7190083,12.9105882 21.3326446,14.0776471 C24.5506198,15.0258824 26.5392562,17.8341176 26.5392562,21.2988235 C26.5392562,28.5564706 21.2603306,30.7811765 14.7882231,30.7811765 L0.289256198,30.7811765 L0.289256198,0.328235294 L0.253099174,0.328235294 Z M8.13533058,12.3270588 L14.2097107,12.3270588 C15.5475207,12.3270588 17.427686,11.5976471 17.427686,9.40941176 C17.427686,7.18470588 15.8729339,6.45529412 14.2097107,6.45529412 L8.13533058,6.45529412 L8.13533058,12.3270588 L8.13533058,12.3270588 Z M8.13533058,24.4352941 L14.4266529,24.4352941 C16.9214876,24.4352941 18.6570248,23.5235294 18.6570248,21.0070588 C18.6570248,18.3082353 16.8130165,17.4329412 14.4266529,17.4329412 L8.13533058,17.4329412 L8.13533058,24.4352941 L8.13533058,24.4352941 Z" id="Shape"></path>
                <path d="M38.5795455,0.328235294 L46.5702479,0.328235294 L57.8512397,30.7811765 L49.643595,30.7811765 L47.7995868,25.3105882 L37.2778926,25.3105882 L35.3615702,30.7811765 L27.2985537,30.7811765 L38.5795455,0.328235294 Z M39.0857438,19.4388235 L45.9555785,19.4388235 L42.6291322,8.75294118 L42.5568182,8.75294118 L39.0857438,19.4388235 Z" id="Shape"></path>
                <path d="M59.731405,0.328235294 L72.7117769,0.328235294 C81.9679752,0.328235294 87.536157,6.01764706 87.536157,15.4270588 C87.536157,25.42 81.8956612,30.7811765 72.7117769,30.7811765 L59.731405,30.7811765 L59.731405,0.328235294 Z M67.6136364,23.9611765 L71.3378099,23.9611765 C77.303719,23.8152941 79.6539256,21.4811765 79.6539256,15.3905882 C79.6539256,9.84705882 76.6890496,7.14823529 71.3378099,7.14823529 L67.6136364,7.14823529 L67.6136364,23.9611765 Z" id="Shape"></path>
                <polygon id="Path" points="91.3326446 0.328235294 99.4318182 0.328235294 109.917355 19.1105882 109.989669 19.1105882 109.989669 0.328235294 117.40186 0.328235294 117.40186 30.7811765 109.338843 30.7811765 98.8533058 11.78 98.7809917 11.78 98.7809917 30.7811765 91.3688017 30.7811765 91.3688017 0.328235294"></polygon>
                <polygon id="Path" points="122.355372 0.328235294 146.43595 0.328235294 146.43595 6.67411765 130.237603 6.67411765 130.237603 11.9988235 145.061983 11.9988235 145.061983 18.1258824 130.237603 18.1258824 130.237603 23.9247059 146.869835 23.9247059 146.869835 30.7447059 122.391529 30.7447059 122.391529 0.328235294"></polygon>
                <polygon id="Path" points="174.855372 7.14823529 165.852273 7.14823529 165.852273 30.7811765 157.970041 30.7811765 157.970041 7.14823529 148.966942 7.14823529 148.966942 0.328235294 174.855372 0.328235294"></polygon>
            </g>
            <g id="Group" transform="translate(73.000000, 45.000000)" fill="rgba(6,11,60,0.55)">
                <polygon id="Path" points="0.254130435 0.242307692 2.17826087 0.242307692 2.17826087 7.09615385 6.46217391 7.09615385 6.46217391 8.65384615 0.217826087 8.65384615 0.217826087 0.242307692"></polygon>
                <polygon id="Path" points="7.47869565 0.242307692 14.086087 0.242307692 14.086087 1.8 9.43913043 1.8 9.43913043 3.6 13.7230435 3.6 13.7230435 5.01923077 9.43913043 5.01923077 9.43913043 7.06153846 14.1586957 7.06153846 14.1586957 8.61923077 7.47869565 8.61923077"></polygon>
                <path d="M18.6604348,0.242307692 L22.7991304,0.242307692 C24.4691304,0.242307692 25.6308696,0.761538462 25.6308696,2.31923077 C25.6308696,3.15 25.1952174,3.70384615 24.4328261,4.08461538 C25.5219565,4.36153846 26.0665217,5.15769231 26.0665217,6.23076923 C26.0665217,7.92692308 24.5417391,8.65384615 22.9443478,8.65384615 L18.6604348,8.65384615 L18.6604348,0.242307692 L18.6604348,0.242307692 Z M20.5845652,3.66923077 L22.545,3.66923077 C23.2347826,3.66923077 23.7430435,3.35769231 23.7430435,2.66538462 C23.7430435,1.86923077 23.0895652,1.69615385 22.3997826,1.69615385 L20.5845652,1.69615385 L20.5845652,3.66923077 Z M20.5845652,7.23461538 L22.653913,7.23461538 C23.4163043,7.23461538 24.0697826,6.99230769 24.0697826,6.12692308 C24.0697826,5.26153846 23.488913,4.91538462 22.6902174,4.91538462 L20.5845652,4.91538462 L20.5845652,7.23461538 L20.5845652,7.23461538 Z" id="Shape"></path>
                <path d="M29.6243478,0.242307692 L31.621087,0.242307692 L34.9247826,8.65384615 L32.9280435,8.65384615 L32.2745652,6.78461538 L28.9708696,6.78461538 L28.281087,8.65384615 L26.3206522,8.65384615 L29.6243478,0.242307692 Z M29.4428261,5.4 L31.73,5.4 L30.6045652,2.31923077 L30.5682609,2.31923077 L29.4428261,5.4 Z" id="Shape"></path>
                <path d="M35.5419565,0.242307692 L39.353913,0.242307692 C41.641087,0.242307692 43.3473913,1.59230769 43.3473913,4.39615385 C43.3473913,6.81923077 42.0404348,8.65384615 39.353913,8.65384615 L35.5419565,8.65384615 L35.5419565,0.242307692 Z M37.466087,7.09615385 L39.2086957,7.09615385 C40.3341304,7.09615385 41.4232609,6.43846154 41.4232609,4.56923077 C41.4232609,2.87307692 40.806087,1.8 38.8819565,1.8 L37.5023913,1.8 L37.5023913,7.09615385 L37.466087,7.09615385 Z" id="Shape"></path>
                <polygon id="Path" points="44.5817391 0.242307692 47.3045652 0.242307692 49.373913 6.02307692 49.4102174 6.02307692 51.3706522 0.242307692 54.0934783 0.242307692 54.0934783 8.65384615 52.2782609 8.65384615 52.2782609 2.7 52.2419565 2.7 50.1 8.65384615 48.6115217 8.65384615 46.4695652 2.76923077 46.4332609 2.76923077 46.4332609 8.65384615 44.6180435 8.65384615 44.6180435 0.242307692"></polygon>
                <polygon id="Path" points="55.6545652 0.242307692 57.5786957 0.242307692 57.5786957 8.65384615 55.6545652 8.65384615"></polygon>
                <polygon id="Path" points="59.1397826 0.242307692 61.063913 0.242307692 64.7306522 5.88461538 64.7669565 5.88461538 64.7669565 0.242307692 66.5821739 0.242307692 66.5821739 8.65384615 64.6580435 8.65384615 60.9913043 3.04615385 60.955 3.04615385 60.955 8.65384615 59.1397826 8.65384615"></polygon>
                <polygon id="Path" points="70.14 1.8 67.4897826 1.8 67.4897826 0.242307692 74.7143478 0.242307692 74.7143478 1.8 72.0641304 1.8 72.0641304 8.65384615 70.14 8.65384615 70.14 1.8"></polygon>
                <path d="M79.5428261,0.0692307692 C82.2656522,0.0692307692 83.8630435,2.00769231 83.8630435,4.5 C83.8630435,6.92307692 82.2656522,8.86153846 79.5428261,8.86153846 C76.82,8.86153846 75.2226087,6.92307692 75.2226087,4.5 C75.2226087,2.00769231 76.82,0.0692307692 79.5428261,0.0692307692 Z M79.5428261,7.30384615 C81.2854348,7.30384615 81.938913,5.88461538 81.938913,4.5 C81.938913,3.04615385 81.2854348,1.62692308 79.5428261,1.62692308 C77.8002174,1.62692308 77.1467391,3.04615385 77.1467391,4.5 C77.1467391,5.88461538 77.8002174,7.30384615 79.5428261,7.30384615 Z" id="Shape"></path>
                <polygon id="Path" points="85.061087 0.242307692 86.9852174 0.242307692 90.6519565 5.88461538 90.6882609 5.88461538 90.6882609 0.242307692 92.5034783 0.242307692 92.5034783 8.65384615 90.5793478 8.65384615 86.9126087 3.04615385 86.8763043 3.04615385 86.8763043 8.65384615 85.061087 8.65384615"></polygon>
                <path d="M97.4045652,0.242307692 L101.361739,0.242307692 C103.576304,0.242307692 104.411304,1.55769231 104.411304,2.94230769 C104.411304,4.32692308 103.576304,5.64230769 101.361739,5.64230769 L99.3286957,5.64230769 L99.3286957,8.65384615 L97.4045652,8.65384615 L97.4045652,0.242307692 L97.4045652,0.242307692 Z M99.365,4.22307692 L100.853478,4.22307692 C101.761087,4.22307692 102.559783,4.05 102.559783,2.97692308 C102.559783,1.90384615 101.761087,1.73076923 100.853478,1.73076923 L99.365,1.73076923 L99.365,4.22307692 Z" id="Shape"></path>
                <path d="M107.025217,0.242307692 L109.021957,0.242307692 L112.325652,8.65384615 L110.328913,8.65384615 L109.675435,6.78461538 L106.371739,6.78461538 L105.645652,8.65384615 L103.685217,8.65384615 L107.025217,0.242307692 Z M106.843696,5.4 L109.13087,5.4 L108.005435,2.31923077 L107.96913,2.31923077 L106.843696,5.4 Z" id="Shape"></path>
                <path d="M112.942826,0.242307692 L117.698696,0.242307692 C119.296087,0.242307692 120.276304,1.28076923 120.276304,2.56153846 C120.276304,3.56538462 119.840652,4.29230769 118.896739,4.67307692 L118.896739,4.70769231 C119.840652,4.95 120.131087,5.81538462 120.167391,6.68076923 C120.203696,7.2 120.203696,8.20384615 120.530435,8.65384615 L118.606304,8.65384615 C118.388478,8.13461538 118.388478,7.30384615 118.31587,6.64615385 C118.170652,5.78076923 117.807609,5.36538462 116.863696,5.36538462 L114.939565,5.36538462 L114.939565,8.65384615 L113.015435,8.65384615 L113.015435,0.242307692 L112.942826,0.242307692 Z M114.866957,4.05 L116.972609,4.05 C117.843913,4.05 118.31587,3.70384615 118.31587,2.83846154 C118.31587,2.04230769 117.843913,1.66153846 116.972609,1.66153846 L114.866957,1.66153846 L114.866957,4.05 Z" id="Shape"></path>
                <polygon id="Path" points="125.032174 0.242307692 126.956304 0.242307692 126.956304 7.09615385 131.240217 7.09615385 131.240217 8.65384615 124.99587 8.65384615 124.99587 0.242307692"></polygon>
                <polygon id="Path" points="132.220435 0.242307692 138.827826 0.242307692 138.827826 1.8 134.18087 1.8 134.18087 3.6 138.464783 3.6 138.464783 5.01923077 134.18087 5.01923077 134.18087 7.06153846 138.936739 7.06153846 138.936739 8.61923077 132.256739 8.61923077 132.256739 0.242307692"></polygon>
                <polygon id="Path" points="143.402174 0.242307692 145.326304 0.242307692 148.993043 5.88461538 149.029348 5.88461538 149.029348 0.242307692 150.844565 0.242307692 150.844565 8.65384615 148.920435 8.65384615 145.253696 3.04615385 145.217391 3.04615385 145.217391 8.65384615 143.402174 8.65384615"></polygon>
                <polygon id="Path" points="152.441957 0.242307692 159.013043 0.242307692 159.013043 1.8 154.366087 1.8 154.366087 3.6 158.65 3.6 158.65 5.01923077 154.366087 5.01923077 154.366087 7.06153846 159.121957 7.06153846 159.121957 8.61923077 152.441957 8.61923077 152.441957 0.242307692"></polygon>
                <polygon id="Path" points="162.24413 1.8 159.593913 1.8 159.593913 0.242307692 166.818478 0.242307692 166.818478 1.8 164.168261 1.8 164.168261 8.65384615 162.24413 8.65384615 162.24413 1.8"></polygon>
            </g>
            <g id="Group">
                <path d="M2.35672515,19.0350877 C2.21169591,19.5426901 1.12397661,21.9719298 0.761403509,23.8935673 C4.60467836,24.8362573 11.2760234,27.5918129 15.7356725,34.2269006 L30.8549708,28.1356725 L30.3111111,25.4888889 L19.7239766,28.7520468 C16.6783626,24.8725146 12.5087719,22.1169591 12.5087719,22.1169591 C12.5087719,22.1169591 35.2421053,18.9625731 38.1789474,18.5637427 C44.6690058,17.6935673 49.7812865,28.2444444 45.394152,32.5953216 C43.2187135,34.7707602 26.6491228,51.0502924 26.6491228,51.0502924 C26.8304094,48.9473684 26.6491228,46.3005848 26.6491228,46.3005848 L30.528655,42.9649123 C30.9637427,41.1520468 31.1450292,39.4842105 31.2900585,38.1426901 C31.2900585,38.1426901 26.3590643,41.7684211 26.0327485,41.9859649 C25.6701754,40.2093567 24.9812865,38.3239766 24.9812865,38.3239766 C24.9812865,38.3239766 30.8912281,34.6982456 31.4350877,34.3719298 C31.4350877,32.7040936 31.2538012,30.8549708 31.2538012,30.8549708 C31.2538012,30.8549708 20.5578947,36.1122807 17.6573099,37.5263158 C20.6666667,43.3637427 21.4280702,51.9929825 18.0923977,59.2081871 C19.9777778,59.9695906 21.3555556,60.477193 22.9146199,60.9122807 C24.5099415,59.2444444 51.594152,31.1450292 52.9356725,29.7672515 C54.1684211,29.1508772 55.5461988,28.4982456 56.7064327,27.9906433 C62.5076023,25.1263158 62.0362573,18.9263158 60.4409357,15.9894737 C58.4830409,12.3637427 53.8783626,10.0070175 48.1859649,13.0163743 C47.6783626,13.2701754 46.3005848,13.922807 45.3216374,14.394152 C43.980117,14.4666667 7.39649123,18.4912281 2.35672515,19.0350877 Z" id="Path" fill="#060B3C"></path>
                <g fill="rgba(6,11,60,0.55)" id="Path">
                    <path d="M14.394152,39.0853801 L3.08187135,44.5964912 C3.98830409,46.4093567 5.03976608,48.1497076 6.27251462,49.7450292 L16.0619883,43.7263158 C15.6269006,41.9859649 15.1918129,40.6807018 14.394152,39.0853801 Z"></path>
                    <path d="M14.2128655,57.0327485 L15.4818713,55.9450292 C16.2070175,53.9508772 16.6783626,51.3040936 16.6783626,48.8023392 L9.97076023,53.7695906 C11.2760234,54.9660819 12.6900585,56.0538012 14.2128655,57.0327485 Z"></path>
                    <path d="M8.99181287,32.0877193 L0.18128655,34.8070175 C0.398830409,36.5836257 0.761403509,38.3239766 1.26900585,40.0280702 L12.2549708,35.6409357 C11.3122807,34.2631579 9.82573099,32.7766082 8.99181287,32.0877193 Z"></path>
                    <path d="M32.8128655,4.60467836 C38.9766082,4.60467836 44.5964912,6.78011696 48.9836257,10.405848 C49.8900585,10.0432749 51.2315789,9.60818713 52.9356725,9.57192982 C47.3520468,3.77076023 39.4842105,0.18128655 30.8187135,0.18128655 C19.2526316,0.18128655 9.20935673,6.52631579 3.91578947,15.9169591 L12.2187135,15.1192982 C16.8233918,8.7380117 24.328655,4.60467836 32.8128655,4.60467836 Z"></path>
                    <path d="M61.3111111,26.5040936 C60.7309942,27.3017544 59.6432749,28.4619883 58.2292398,29.1871345 C58.2292398,29.477193 58.2654971,29.7309942 58.2654971,30.0210526 C58.2654971,44.0888889 46.8807018,55.4736842 32.8128655,55.4736842 C32.5590643,55.4736842 32.3052632,55.4736842 32.051462,55.4374269 L26.322807,61.528655 C27.7730994,61.7461988 29.2959064,61.8549708 30.8187135,61.8549708 C47.8596491,61.8549708 61.6736842,48.0409357 61.6736842,31 C61.6374269,29.5134503 61.528655,27.9906433 61.3111111,26.5040936 Z"></path>
                </g>
            </g>
        </g>
    </g>
</svg>